<?xml version="1.0" encoding="utf-8"?>
<!-- Generator: Adobe Illustrator 27.8.1, SVG Export Plug-In . SVG Version: 6.00 Build 0)  -->
<svg version="1.1" id="Warstwa_1" xmlns="http://www.w3.org/2000/svg" xmlns:xlink="http://www.w3.org/1999/xlink" x="0px" y="0px"
	 viewBox="0 0 170 364" style="enable-background:new 0 0 170 364;" xml:space="preserve">
<style type="text/css">
	.st0{fill:#F9F9F9;}
</style>
<g>
	<path class="st0" d="M159.5,92c-4.6-9.5-11-17.2-19.3-23.3c-8.2-6.1-17.8-10.5-28.9-13.4c-11-2.8-23-4.2-35.8-4.2
		c-1.8,0-3.7,0-5.5,0.1l-6.6-7.2c1.2-0.9,2.3-1.9,3.3-3s1.8-2.4,2.4-3.8c0.7-1.4,1.2-2.8,1.5-4.4c0.4-1.6,0.5-3.2,0.5-4.9
		c0-1.9-0.2-3.7-0.6-5.4c-0.4-1.7-1-3.3-1.8-4.7C68,16.5,67,15.2,65.8,14c-1.1-1.2-2.4-2.2-3.9-3c-1.4-0.8-3-1.5-4.7-1.9
		c-1.7-0.5-3.5-0.7-5.5-0.7c-2.9,0-5.5,0.5-7.9,1.5c-2.4,1-4.4,2.3-6.1,4.1c-1.7,1.7-3,3.8-4,6.2c-0.9,2.4-1.4,5-1.4,7.8
		c0,2.8,0.5,5.4,1.4,7.8c0.9,2.4,2.3,4.5,4,6.2c1.7,1.7,3.7,3.1,6.1,4.1c2.4,1,5,1.5,7.9,1.5c1,0,2-0.1,3-0.2s1.9-0.3,2.8-0.6
		l4.4,4.9c-8.6,0.7-17.1,2.1-25.3,4.2c-12.6,3.2-24.2,7.9-34.8,14.3v62.3c10.4-9.1,21.3-15.9,32.9-20.4c11.6-4.5,22.8-6.7,33.5-6.7
		c5,0,9.5,0.8,13.6,2.3c4.1,1.5,7.5,3.6,10.4,6.2c2.8,2.6,5,5.8,6.5,9.4c1.5,3.7,2.3,7.6,2.3,11.9c0,5-0.7,9.5-2.1,13.6
		c-1.4,4.1-3.5,8-6.2,11.8c-2.8,3.8-6.1,7.6-10,11.4c-3.9,3.8-8.5,7.9-13.8,12.3c-5,4.1-9.3,8.3-13,12.5c-3.7,4.2-6.8,8.6-9.3,13.2
		c-2.5,4.6-4.3,9.6-5.6,14.8c-1.2,5.2-1.9,11-1.9,17.4c0,4,0.4,8.2,1.1,12.7c0.8,4.5,1.8,8.5,3.2,12.1h54.4
		c-1.5-2.3-2.7-5.2-3.6-8.7c-0.9-3.4-1.3-6.8-1.3-10.1c0-4.8,0.6-9.1,1.9-12.9c1.2-3.8,3.1-7.4,5.5-10.8c2.4-3.4,5.5-6.8,9.1-10.2
		c3.7-3.4,7.9-7.2,12.7-11.2c7.2-5.9,13.5-11.7,19-17.3c5.5-5.6,10.1-11.4,13.9-17.5c3.7-6.1,6.6-12.5,8.5-19.4
		c1.9-6.8,2.9-14.5,2.9-22.9C166.4,112.8,164.1,101.5,159.5,92z M56.8,40.6c-1.5,0.6-3.2,0.9-5,0.9s-3.6-0.3-5-0.9
		c-1.5-0.6-2.8-1.5-3.8-2.7c-1.1-1.2-1.9-2.6-2.4-4.2c-0.6-1.7-0.8-3.6-0.8-5.7s0.3-4,0.8-5.7c0.6-1.7,1.4-3.1,2.4-4.3
		c1.1-1.2,2.3-2.1,3.8-2.7c1.5-0.6,3.2-0.9,5-0.9s3.6,0.3,5,0.9c1.5,0.6,2.8,1.5,3.8,2.7c1,1.2,1.8,2.6,2.4,4.3
		c0.6,1.7,0.8,3.6,0.8,5.7s-0.3,4-0.8,5.7c-0.6,1.7-1.4,3.1-2.4,4.2C59.6,39,58.3,39.9,56.8,40.6z"/>
	<path class="st0" d="M100.8,299.2c-7.2-6.5-16.2-9.7-27.1-9.7c-11,0-20.2,3.2-27.5,9.7c-7.3,6.5-11,14.6-11,24.2
		c0,9.4,3.7,17.5,11,24.4c7.3,6.6,16.5,9.9,27.5,9.9c11,0,20.1-3.2,27.3-9.7c7-6.5,10.6-14.7,10.6-24.6
		C111.6,313.6,108,305.5,100.8,299.2z"/>
	<path class="st0" d="M5.3,36.3l-2,10.8h2.9c0.7,0,1.3-0.2,1.9-0.6s0.9-1,1.1-1.8l1.6-8.4h5.4l-1.5,8.1c-0.1,0.4-0.1,0.7,0,1
		s0.2,0.6,0.4,0.9c0.2,0.2,0.4,0.4,0.7,0.6c0.3,0.1,0.5,0.2,0.8,0.2h3l2-10.8h5.8l0.3-2.1c0.1-1,0.1-1.7-0.2-2.1s-0.8-0.6-1.4-0.6
		h-3.7l1.4-7.3h2.6c0.9,0,1.6-0.2,2-0.5s0.7-0.8,0.8-1.5l0.5-2.7h-5.3l1.6-8.5c0.1-0.7,0-1.2-0.5-1.6C25,9,24.5,8.8,23.8,8.8h-2.9
		l-2,10.8h-5.4l2-10.8h-3c-0.7,0-1.3,0.2-1.8,0.6c-0.5,0.4-0.8,0.9-1,1.6l-1.6,8.5h-3c-0.9,0-1.6,0.2-2,0.5
		c-0.4,0.3-0.7,0.8-0.8,1.5l-0.5,2.7h5.7L6,31.6H1l-0.3,2.1c-0.1,1-0.1,1.6,0.2,2c0.3,0.4,0.8,0.6,1.4,0.6H5.3z M12.8,24.3h5.4
		l-1.4,7.3h-5.4L12.8,24.3z"/>
	<path class="st0" d="M78.8,44.6c1.1,1,2.4,1.7,3.8,2.2c1.4,0.5,2.9,0.8,4.3,0.8c2.4,0,4.7-0.4,6.8-1.2c2.1-0.8,4-1.9,5.6-3.2
		l2.6,2.7c0.5,0.5,0.9,0.8,1.3,1s1,0.2,1.6,0.2h6.4l-8-8.3c1.2-1.8,2.2-3.7,2.8-5.9s1-4.3,1-6.7h-4.1c-0.4,0-0.7,0.1-1,0.4
		c-0.2,0.2-0.4,0.6-0.4,1c-0.1,1.3-0.3,2.5-0.7,3.8c-0.4,1.2-0.8,2.4-1.4,3.5L89.4,24.4c-0.6-0.6-1.1-1.2-1.5-1.7
		c-0.4-0.5-0.7-1-1-1.5c-0.2-0.5-0.4-1-0.5-1.5c-0.1-0.5-0.2-1-0.2-1.5c0-0.6,0.1-1.2,0.3-1.8c0.2-0.6,0.5-1.1,0.9-1.5
		c0.4-0.4,0.9-0.8,1.5-1c0.6-0.3,1.2-0.4,2-0.4c0.6,0,1.2,0.1,1.6,0.3s0.9,0.4,1.2,0.7c0.4,0.3,0.7,0.7,0.9,1.1
		c0.3,0.4,0.5,0.9,0.6,1.3c0.4,0.8,0.9,1.2,1.7,1l4.2-0.9c-0.1-1.1-0.4-2.2-0.9-3.2s-1.2-1.9-2.1-2.7s-1.9-1.4-3.2-1.9
		c-1.2-0.5-2.6-0.7-4.2-0.7c-1.7,0-3.2,0.3-4.6,0.8c-1.3,0.5-2.5,1.2-3.4,2.1c-0.9,0.9-1.6,1.9-2.1,3.1c-0.5,1.2-0.7,2.5-0.7,3.8
		c0,1.3,0.2,2.5,0.6,3.8c0.4,1.3,1.1,2.6,2.1,3.9c-1.1,0.5-2.2,1.2-3.1,1.9s-1.8,1.6-2.5,2.5c-0.7,0.9-1.2,1.9-1.6,3
		c-0.4,1.1-0.6,2.2-0.6,3.4c0,1.7,0.3,3.2,1,4.6S77.7,43.7,78.8,44.6z M82.8,32.4c0.6-1.2,1.7-2.2,3.1-3.1l10,10.4
		c-1,0.9-2.2,1.5-3.5,2c-1.3,0.5-2.7,0.7-4.3,0.7c-0.9,0-1.7-0.1-2.5-0.4c-0.8-0.3-1.4-0.7-2-1.2c-0.6-0.5-1-1.2-1.4-2
		c-0.3-0.8-0.5-1.7-0.5-2.6C81.8,34.8,82.1,33.5,82.8,32.4z"/>
	<path class="st0" d="M120.1,46.6c0.4-0.3,0.7-0.7,0.8-1.1l2.9-7.8h15.9l2.9,7.8c0.2,0.5,0.5,0.8,0.9,1.2c0.4,0.3,0.9,0.5,1.5,0.5
		h5.5L135.3,8.8h-7.3L113,47.2h5.6C119.2,47.2,119.7,47,120.1,46.6z M130.3,20c0.2-0.6,0.5-1.3,0.7-2.1s0.5-1.6,0.7-2.5
		c0.2,0.9,0.5,1.7,0.7,2.5s0.5,1.4,0.7,2l4.7,12.7h-12.2L130.3,20z"/>
</g>
</svg>
