<svg id="Group_5534" data-name="Group 5534" xmlns="http://www.w3.org/2000/svg" xmlns:xlink="http://www.w3.org/1999/xlink" width="30" height="30" viewBox="0 0 30 30">
  <defs>
    <clipPath id="clip-path">
      <rect id="Rectangle_10332" data-name="Rectangle 10332" width="15" height="17.321" fill="#fff"/>
    </clipPath>
  </defs>
  <rect id="Rectangle_19530" data-name="Rectangle 19530" width="30" height="30" fill="#222"/>
  <rect id="Rectangle_1595" data-name="Rectangle 1595" width="30" height="30" fill="none"/>
  <g id="Group_5283" data-name="Group 5283" transform="translate(7.5 6.339)">
    <g id="Group_5282" data-name="Group 5282" clip-path="url(#clip-path)">
      <path id="Path_22438" data-name="Path 22438" d="M6.158,6.461V9.313H5.521a2.521,2.521,0,0,0-.247,5.036,2.462,2.462,0,0,0,2.665-2.44c.038-2.867.015-5.735.017-8.6V0h2.9c.208,2.52,1.692,3.851,4.14,4.217V6.989a6.9,6.9,0,0,1-4.072-1.177c0,.316,0,.586,0,.855-.037,2.011.074,4.039-.152,6.029a5.357,5.357,0,0,1-5.593,4.612A5.553,5.553,0,0,1,0,11.882C-.046,8.6,3.065,5.838,6.158,6.461" fill="#fff"/>
    </g>
  </g>
</svg>
