<svg id="Group_5532" data-name="Group 5532" xmlns="http://www.w3.org/2000/svg" width="30" height="30" viewBox="0 0 30 30">
  <rect id="Rectangle_19531" data-name="Rectangle 19531" width="30" height="30" fill="#222"/>
  <path id="Path_7915" data-name="Path 7915" d="M105.067,118.018q.011.229.01.46A10.119,10.119,0,0,1,89.5,127a7.248,7.248,0,0,0,.849.049,7.139,7.139,0,0,0,4.419-1.523,3.562,3.562,0,0,1-3.324-2.471A3.552,3.552,0,0,0,93.051,123a3.56,3.56,0,0,1-2.854-3.488c0-.016,0-.03,0-.045a3.532,3.532,0,0,0,1.611.445,3.561,3.561,0,0,1-1.1-4.75,10.1,10.1,0,0,0,7.334,3.717,3.56,3.56,0,0,1,6.063-3.245,7.132,7.132,0,0,0,2.259-.864,3.57,3.57,0,0,1-1.565,1.968,7.1,7.1,0,0,0,2.043-.56,7.237,7.237,0,0,1-1.775,1.842" transform="translate(-82.895 -105.642)" fill="#fff"/>
  <rect id="Rectangle_1595" data-name="Rectangle 1595" width="30" height="30" fill="none"/>
</svg>
